<?xml version="1.0" encoding="utf-8"?>
<!DOCTYPE svg PUBLIC "-//W3C//DTD SVG 1.1//EN" "http://www.w3.org/Graphics/SVG/1.1/DTD/svg11.dtd">
<svg version="1.1" id="Layer_1" xmlns="http://www.w3.org/2000/svg" xmlns:xlink="http://www.w3.org/1999/xlink" x="0px" y="0px"
   width="94px" height="94px" viewBox="0 0 94 94" enable-background="new 0 0 94 94" xml:space="preserve">
<path fill="#231F20" d="M52.318,43.829V24.546h1.117c0.926,0,1.678-0.75,1.678-1.677v-1.817c0-0.926-0.752-1.677-1.678-1.677H40.404
	c-0.928,0-1.678,0.751-1.678,1.677v1.817c0,0.926,0.75,1.677,1.678,1.677h1.115v19.282c-7.004,2.275-12.07,8.854-12.07,16.619
	c0,9.647,7.822,17.469,17.471,17.469s17.469-7.821,17.469-17.469C64.389,52.683,59.324,46.104,52.318,43.829z M47.092,73.037
	c-7.18,0-13-5.82-13-13h26C60.092,67.217,54.271,73.037,47.092,73.037z"/>
</svg>
