<?xml version="1.0" encoding="utf-8"?>
<!DOCTYPE svg PUBLIC "-//W3C//DTD SVG 1.1//EN" "http://www.w3.org/Graphics/SVG/1.1/DTD/svg11.dtd">
<svg version="1.1" id="Layer_1" xmlns="http://www.w3.org/2000/svg" xmlns:xlink="http://www.w3.org/1999/xlink" x="0px" y="0px"
	 width="94px" height="94px" viewBox="0 0 94 94" enable-background="new 0 0 94 94" xml:space="preserve">
<g>
	<path fill="#231F20" d="M36.485,56.336l-1.587-2.31l-1.721,1.182l-13.78,0.686l-0.223,0.152c-3.924,2.693-4.926,8.078-2.232,12.003
		c1.61,2.347,4.274,3.749,7.124,3.749h0.001c1.746,0,3.433-0.524,4.877-1.516l0.223-0.153l5.589-12.606L36.485,56.336z
		 M25.588,63.706l5.113-3.51l-2.952,6.658L25.588,63.706z M29.222,58.03l-5.118,3.512l-2.161-3.148L29.222,58.03z"/>
	<path fill="#231F20" d="M70.96,52.426v-3.369h-0.002v-0.516L49.771,34.039v-4.948h-3.672v2.435l-21.188-14.5v4.076l21.188,14.501
		v31.01H35.792v3.671h24.287v-3.671H49.771V38.115l18.39,12.587v1.715l-7.232,11.75v0.271c0,4.761,3.873,8.633,8.632,8.633
		c4.76,0,8.633-3.872,8.633-8.633v-0.271L70.96,52.426z M64.43,63.483l3.82-6.207v6.207H64.43z M70.871,63.483v-6.201l3.82,6.201
		H70.871z"/>
</g>
</svg>
