<?xml version="1.0" encoding="utf-8"?>
<!DOCTYPE svg PUBLIC "-//W3C//DTD SVG 1.1//EN" "http://www.w3.org/Graphics/SVG/1.1/DTD/svg11.dtd">
<svg version="1.1" id="Layer_1" xmlns="http://www.w3.org/2000/svg" xmlns:xlink="http://www.w3.org/1999/xlink" x="0px" y="0px"
	 width="94px" height="94px" viewBox="0 0 94 94" enable-background="new 0 0 94 94" xml:space="preserve">
<path fill="#231F20" d="M67.859,23.556c-5.938,0-10.132,2.634-12.326,7.582h-3.779V23.19h-1.709v7.947H47.53V23.19h-1.71v7.947
	h-2.515V23.19h-1.711v7.947h-3.777c-2.194-4.948-6.388-7.582-12.326-7.582c-7.204,0-12.435,4.592-12.435,10.919
	c0,2.633,0.874,5.036,2.462,6.774c1.375,1.756,3.435,2.763,5.658,2.763c3.966,0,7.192-3.227,7.192-7.191
	c0-3.929-3.167-7.13-7.08-7.19c1.168-0.686,2.58-1.078,4.074-1.078c5.952,0,8.97,2.039,8.97,9.289S24.279,55.72,24.775,63.963
	c0.362,6.04,5.447,16.258,21.936,16.258c16.487,0,21.56-10.216,21.908-16.255c0.462-8.027-9.602-17.294-9.602-25.736
	s3.018-9.678,8.97-9.678c1.494,0,2.906,0.393,4.074,1.078c-3.913,0.061-7.08,3.262-7.08,7.19c0,3.965,3.227,7.191,7.192,7.191
	c2.224,0,4.283-1.007,5.658-2.763c1.588-1.738,2.462-4.142,2.462-6.774C80.293,28.147,75.063,23.556,67.859,23.556z M50.045,33.048
	v38.391c-0.814,0.191-1.654,0.31-2.515,0.359v-38.75H50.045z M45.82,33.048v38.75c-0.86-0.05-1.7-0.169-2.515-0.359V33.048H45.82z
	 M31.949,60.114c0-5.271,6.576-12.298,6.576-27.066h3.069v37.874C35.97,68.85,31.949,66.458,31.949,60.114z M61.402,60.114
	c0,6.346-4.021,8.737-9.648,10.809V33.048h3.071C54.825,47.816,61.402,54.843,61.402,60.114z"/>
</svg>
