<?xml version="1.0" encoding="utf-8"?>
<!DOCTYPE svg PUBLIC "-//W3C//DTD SVG 1.1//EN" "http://www.w3.org/Graphics/SVG/1.1/DTD/svg11.dtd">
<svg version="1.1" id="Layer_1" xmlns="http://www.w3.org/2000/svg" xmlns:xlink="http://www.w3.org/1999/xlink" x="0px" y="0px"
	 width="94px" height="94px" viewBox="0 0 94 94" enable-background="new 0 0 94 94" xml:space="preserve">
<g>
	<path fill="#231F20" d="M66.833,56.696c-0.706-0.248-1.445-0.423-2.185-0.546c-1.687-0.281-3.323-0.699-4.601-1.901
		c-0.833-0.781-1.575-1.667-2.313-2.545c-0.842-1-1.516-2.172-2.472-3.039c-2.337-2.121-5.222-2.521-8.257-2.296
		c-2.472,0.184-4.554,1.313-6.561,2.636c-1.262,0.832-2.174,1.924-2.42,3.468c-0.102,0.638-0.217,1.28-0.234,1.923
		c-0.058,2.324-1.092,4.097-2.909,5.503c-1.248,0.966-2.489,1.958-3.617,3.059c-1.677,1.634-1.903,3.519-0.839,5.607
		c0.763,1.497,1.916,2.642,3.312,3.539c2.437,1.565,5.091,2.405,7.976,1.801c1.471-0.309,2.902-0.914,4.276-1.551
		c1.967-0.91,3.841-2.016,5.798-2.95c1.495-0.716,3.1-1.181,4.772-1.14c1.812,0.042,3.62,0.223,5.43,0.342
		c1.281,0.072,2.978-0.175,3.95-0.656c2.72-1.353,3.872-3.755,4.162-6.603C70.3,59.392,68.804,57.388,66.833,56.696z"/>
	<path fill="#231F20" d="M38.651,33.613c-0.627,1.543-0.667,3.141-0.335,4.755c0.416,2.018,1.275,3.808,2.869,5.166
		c0.972,0.829,2.079,1.359,3.406,1.11c1.553-0.289,2.443-1.358,2.863-2.766c1.021-3.428,0.201-6.483-2.128-9.139
		c-0.845-0.962-1.911-1.587-2.782-1.631c-0.99-2.62-2.671-4.738-4.346-6.866c-0.105,2.909-0.313,5.808,0.861,8.587
		C38.908,33.07,38.768,33.325,38.651,33.613z"/>
	<path fill="#231F20" d="M30.456,47.236c0.792,1.399,1.825,2.576,3.307,3.292c1.68,0.809,3.426,0.354,4.303-1.19
		c0.32-0.563,0.558-1.217,0.655-1.856c0.427-2.802-0.412-5.282-2.097-7.501c-0.749-0.987-1.68-1.769-2.873-2.189
		c-0.371-0.131-0.732-0.193-1.082-0.21c-1.383-2.623-1.502-5.426-1.451-8.315c-2.206,2.804-2.65,7.181-1.494,10.128
		c-0.47,0.9-0.61,1.868-0.63,2.78C29.105,44.039,29.584,45.695,30.456,47.236z"/>
	<path fill="#231F20" d="M31.59,60.419c1.603-0.723,2.054-2.138,2.109-3.889c-0.036-0.299-0.045-0.735-0.144-1.15
		c-0.734-3.07-2.408-5.399-5.462-6.48c-0.511-0.181-1-0.24-1.468-0.237c-1.216-2.558-1.307-5.261-1.26-8.105
		c-2.305,2.97-2.617,7.252-1.68,9.843c-0.271,0.503-0.443,1.098-0.49,1.766c-0.229,3.272,2.013,6.896,5.05,8.137
		C29.34,60.752,30.48,60.92,31.59,60.419z"/>
	<path fill="#231F20" d="M60.47,43.142c-0.951,1.665-1.189,3.475-0.942,5.354c0.21,1.598,0.753,3.06,1.928,4.223
		c1.469,1.455,3.426,1.462,4.872-0.016c1.243-1.268,1.711-2.862,1.825-4.592c0.126-1.898-0.223-3.688-1.315-5.27
		c-0.34-0.491-0.722-0.915-1.157-1.238c-0.243-3.13-2.402-6.847-5.701-8.539c1.298,2.663,2.431,5.271,2.256,8.263
		C61.478,41.712,60.913,42.365,60.47,43.142z"/>
	<path fill="#231F20" d="M52.269,32.524c-0.667,0.381-1.209,0.978-1.661,1.698c-1.055,1.686-1.366,3.562-1.224,5.521
		c0.134,1.845,0.639,3.558,1.836,5.015c1.826,2.225,4.489,2.148,6.176-0.182c1.107-1.528,1.462-3.283,1.511-5.104
		c-0.046-1.963-0.445-3.799-1.585-5.41c-0.438-0.619-0.948-1.145-1.563-1.501c-0.953-3.187-3.801-6.276-7.003-7.173
		c0.74,1.174,1.538,2.363,2.256,3.598C51.646,30.073,52.025,31.261,52.269,32.524z"/>
</g>
</svg>
