<?xml version="1.0" encoding="utf-8"?>
<!DOCTYPE svg PUBLIC "-//W3C//DTD SVG 1.1//EN" "http://www.w3.org/Graphics/SVG/1.1/DTD/svg11.dtd">
<svg version="1.1" id="Layer_1" xmlns="http://www.w3.org/2000/svg" xmlns:xlink="http://www.w3.org/1999/xlink" x="0px" y="0px"
	 width="94px" height="94px" viewBox="0 0 94 94" enable-background="new 0 0 94 94" xml:space="preserve">
<path fill="#231F20" d="M64.467,32.93c-3.666,0-10.662,1.681-17.654,1.681c-6.994,0-13.988-1.681-17.656-1.681
	c-11.811,0-18.861,4.384-18.861,13.941c0,9.557,7.051,17.304,18.861,17.304c7.334,0,10.176-5.5,17.656-5.5
	c7.479,0,10.32,5.5,17.654,5.5c11.81,0,18.861-7.747,18.861-17.304C83.328,37.314,76.277,32.93,64.467,32.93z M27.793,53.759
	c-5.699-2-8.395-9.109-8.395-9.109s6.838-2.522,12.539-0.524c5.701,2,8.1,7.76,8.1,7.76S33.494,55.757,27.793,53.759z
	 M65.535,54.042c-5.529,1.51-12.498-2.988-12.498-2.988s1.615-5.634,7.146-7.146c5.529-1.512,12.875,1.674,12.875,1.674
	S71.066,52.529,65.535,54.042z"/>
</svg>
