<?xml version="1.0" encoding="utf-8"?>
<!DOCTYPE svg PUBLIC "-//W3C//DTD SVG 1.1//EN" "http://www.w3.org/Graphics/SVG/1.1/DTD/svg11.dtd">
<svg version="1.1" id="Layer_1" xmlns="http://www.w3.org/2000/svg" xmlns:xlink="http://www.w3.org/1999/xlink" x="0px" y="0px"
	 width="94px" height="94px" viewBox="0 0 94 94" enable-background="new 0 0 94 94" xml:space="preserve">
<path fill="#231F20" d="M73.539,69.539l-2.645-0.658l-7.416-7.165l3.071-3.178l2.613-0.751l0.664-2.641l-1.958-1.891l-2.619,0.749
	l-0.656,2.643l-2.605,2.695L50.529,47.012l12.992-12.668l4.588,0.673l0.496-1.678c0.35-0.204,0.686-0.452,0.986-0.754
	c1.881-1.883,1.881-4.934,0.002-6.813c-1.884-1.883-4.935-1.885-6.816-0.001c-0.301,0.301-0.551,0.634-0.756,0.985l-1.678,0.495
	l0.672,4.59L48.428,44.75L30.383,25.333L20.244,21.84l3.842,10.012l20.005,17.346L26.424,67.318l-1.543-0.906l-2.348,2.348
	l0.859,3.207l3.207,0.859l2.35-2.348l-0.906-1.541l18.27-17.813l12.848,11.14l-2.604,2.694l-2.617,0.749l-0.658,2.643l1.959,1.893
	l2.615-0.751l0.662-2.642l3.069-3.177l7.417,7.165l0.75,2.619l2.643,0.659l1.891-1.958L73.539,69.539z"/>
</svg>
