<?xml version="1.0" encoding="utf-8"?>
<!DOCTYPE svg PUBLIC "-//W3C//DTD SVG 1.1//EN" "http://www.w3.org/Graphics/SVG/1.1/DTD/svg11.dtd">
<svg version="1.1" id="Layer_1" xmlns="http://www.w3.org/2000/svg" xmlns:xlink="http://www.w3.org/1999/xlink" x="0px" y="0px"
	 width="94px" height="94px" viewBox="0 0 94 94" enable-background="new 0 0 94 94" xml:space="preserve">
<path fill="#231F20" d="M70.942,36.297v-2.096h-0.004v-1.259H49.75v-3.894h-3.672v3.894H24.891v3.355l-7.227,11.741v0.271
	c0,4.76,3.873,8.633,8.633,8.633s8.633-3.873,8.633-8.633v-0.271l-7.037-11.424h18.186v29.955H35.771v3.672h24.286v-3.672H49.75
	V36.614h18.19l-7.032,11.424v0.271c0,4.76,3.872,8.633,8.632,8.633c4.761,0,8.633-3.873,8.633-8.633v-0.271L70.942,36.297z
	 M64.41,47.354l3.82-6.207v6.207H64.41z M70.852,47.354v-6.202l3.819,6.202H70.852z M27.608,47.354v-6.201l3.819,6.201H27.608z
	 M21.165,47.354l3.82-6.207v6.207H21.165z"/>
</svg>
