<?xml version="1.0" encoding="utf-8"?>
<!DOCTYPE svg PUBLIC "-//W3C//DTD SVG 1.1//EN" "http://www.w3.org/Graphics/SVG/1.1/DTD/svg11.dtd">
<svg version="1.1" id="Layer_1" xmlns="http://www.w3.org/2000/svg" xmlns:xlink="http://www.w3.org/1999/xlink" x="0px" y="0px"
	 width="94px" height="94px" viewBox="0 0 94 94" enable-background="new 0 0 94 94" xml:space="preserve">
<path fill="#231F20" d="M64.309,31.507l1.736,4.596l7.42-15.939l-15.939,7.422l4.598,1.735l-5.37,5.369
	c-5.949-5.479-13.134-8.486-20.317-8.486c-6.877,0.001-13.176,2.665-18.219,7.708c-0.856,0.856-0.856,2.251,0,3.108
	c0.831,0.829,2.277,0.828,3.107,0c0.4-0.399,0.821-0.79,1.257-1.166l16.504,16.504l-8.511,8.511l-5.695,0.54l-5.22,4.145l6.63-0.73
	l-3.958,3.959l2.477,2.477l4.008-4.008l-0.741,6.718l4.23-5.133l0.449-5.786l8.516-8.506l16.504,16.504
	c-0.375,0.438-0.766,0.857-1.166,1.257c-0.856,0.856-0.856,2.252,0.001,3.108c0.414,0.414,0.966,0.643,1.553,0.642
	c0.586,0.001,1.139-0.228,1.554-0.644c10.552-10.553,10.179-26.636-0.778-38.535L64.309,31.507z M41.271,50.172l-16.189-16.19
	c3.405-2.194,7.311-3.347,11.361-3.347c6.039,0,12.113,2.538,17.201,7.164L41.271,50.172z M59.648,68.548l-16.192-16.19
	L55.83,39.986C63.717,48.658,65.212,59.912,59.648,68.548z"/>
</svg>
