<?xml version="1.0" encoding="utf-8"?>
<!DOCTYPE svg PUBLIC "-//W3C//DTD SVG 1.1//EN" "http://www.w3.org/Graphics/SVG/1.1/DTD/svg11.dtd">
<svg version="1.1" id="Layer_1" xmlns="http://www.w3.org/2000/svg" xmlns:xlink="http://www.w3.org/1999/xlink" x="0px" y="0px"
	 width="94px" height="94px" viewBox="0 0 94 94" enable-background="new 0 0 94 94" xml:space="preserve">
<path fill="#231F20" d="M58.382,73.455c2.718-2.652,5.371-4.417,8.194-6.513c2.824-2.095,4.593-4.731,7.231-6.491
	c1.259-0.838,2.694-1.452,3.854-2.418c0.342-0.285,1.678-1.235,1.808-1.747c0.128-0.512,0.091-1.543-0.724-2.193
	c-5.975-4.781-12.267,5.339-18.04,6.706c-4.388,1.039-3.469-7.212-3.469-7.212s0.575-2.983,0.73-4.51
	c0.405-3.974,1.272-7.394,1.817-11.358c0.461-3.354,1.434-6.331,1.434-9.82c0-1.456,0.062-3.817-1.373-4.812
	c-1.372-0.953-3.781,0.006-4.149,1.602c-0.843,3.655-1.041,7.325-2.022,10.945c-0.761,2.806-0.341,7.852-2.238,9.541
	c-0.438,0.39-2.474,0.289-2.572-0.271c-0.764-4.354,0.083-13.073,0.083-14.397c0-1.822,0.013-8.769-0.118-10.497
	c-0.131-1.727,0-3.443-2.938-3.441c-1.835,0-3.006,1.177-3.139,3.295c-0.113,1.823-0.3,8.423-0.169,10.121
	c0.267,3.464,0.008,6.907,0.238,10.367c0.043,0.64-0.325,4.425-0.739,4.515c-3.13,0.676-2.149-0.565-2.738-3.195
	c-0.813-3.633-2.695-20.319-3.438-21.496c-0.743-1.176-2.088-1.661-3.364-1.142c-1.504,0.614-1.987,2.353-1.863,3.967
	c0.292,3.796,1.366,7.521,1.89,11.292c0.126,0.91,0.702,5.128,0.818,6.303c0.254,2.564,0.957,5.927,0.957,5.927
	s-2.644,2.166-3.473,0.101c-0.639-1.591-1.272-3.185-1.926-4.769c-1.518-3.676-3.042-7.349-4.576-11.017
	c-0.354-0.848-3.009-1.114-3.521-0.371c-1.397,2.028-0.546,3.047,0.164,5.414c0.987,3.293,2.008,6.576,3.035,9.857
	c1.106,3.534,3.061,9.767,3.932,13.987c0.871,4.219,1.127,15.231,8.975,18.013C44.803,80.518,55.767,76.006,58.382,73.455z"/>
</svg>
