<?xml version="1.0" encoding="utf-8"?>
<!DOCTYPE svg PUBLIC "-//W3C//DTD SVG 1.1//EN" "http://www.w3.org/Graphics/SVG/1.1/DTD/svg11.dtd">
<svg version="1.1" id="Layer_1" xmlns="http://www.w3.org/2000/svg" xmlns:xlink="http://www.w3.org/1999/xlink" x="0px" y="0px"
	 width="94px" height="94px" viewBox="0 0 94 94" enable-background="new 0 0 94 94" xml:space="preserve">
<path fill="#231F20" d="M79.54,37.317c-5.324-3.946-12.037-2.642-18.012-4.11c-0.056-0.226-0.106-0.457-0.161-0.684
	c2.816-1.739,5.638-3.473,8.451-5.211c-0.079-0.221-0.151-0.443-0.227-0.662c-2.157,0.209-4.518-0.078-6.435,0.713
	c-6.312,2.592-17.422-0.13-24.013-0.656c-1.592-0.127-3.483-0.063-4.805,0.682c-3.475,1.963-7.02,2.123-10.818,1.633
	c-5.107-0.662-9.15,3.201-9.202,8.725c2.769-0.145,6.204,2.731,8.965,2.636c1.898-0.063,11.532,2.729,14.914,4.024
	c3.448,1.313,5.028,3.415,4.453,7.076c-0.013,0.095,0.173,0.22,0.169,0.219c4.688,0.845,5.578-1.293,9.208-2.299
	c0.092,0.612,0.212,0.917,0.171,1.198c-0.298,2.127-1.71,10.673-0.835,13.798c0.839,2.996,0.06,16.102-9.391,28.968
	c1.59,0.167,3.204,0.256,4.839,0.256c3.223,0,6.366-0.336,9.4-0.969c1.801-4.067,5.183-10.754,6.141-14.786
	c1.797,1.316,4.095,4.302,4.095,4.302s2.641-6.409,2.583-8.167c-0.166-5.062-1.353-7.993-1.524-13.478
	c3.795,1.856,6.874,3.364,10.479,5.129c-0.317-10.759-8.037-17.663-11.83-26.464c4.645-0.388,8.997-0.751,13.352-1.109
	C79.521,37.824,79.527,37.571,79.54,37.317z"/>
</svg>
