<?xml version="1.0" encoding="utf-8"?>
<!DOCTYPE svg PUBLIC "-//W3C//DTD SVG 1.1//EN" "http://www.w3.org/Graphics/SVG/1.1/DTD/svg11.dtd">
<svg version="1.1" id="Layer_1" xmlns="http://www.w3.org/2000/svg" xmlns:xlink="http://www.w3.org/1999/xlink" x="0px" y="0px"
	 width="94px" height="94px" viewBox="0 0 94 94" enable-background="new 0 0 94 94" xml:space="preserve">
<path fill="#231F20" d="M80.55,37.241H54.776l-7.965-24.513l-7.964,24.513H13.075l20.85,15.149L25.96,76.903l20.851-15.149
	l20.852,15.149l-7.964-24.513L80.55,37.241z M46.811,57.263l-8.615-6.26l3.291-10.129h10.649l3.291,10.129L46.811,57.263z
	 M49.902,59.508l6.706-4.872l4.145,12.756L49.902,59.508z M55.956,40.874h13.413l-10.851,7.884L55.956,40.874z M42.667,37.241
	l4.145-12.756l4.146,12.756H42.667z M43.721,59.508l-10.851,7.884l4.145-12.756L43.721,59.508z M24.255,40.874h13.411l-2.562,7.883
	L24.255,40.874z"/>
</svg>
