<?xml version="1.0" encoding="utf-8"?>
<!DOCTYPE svg PUBLIC "-//W3C//DTD SVG 1.1//EN" "http://www.w3.org/Graphics/SVG/1.1/DTD/svg11.dtd">
<svg version="1.1" id="Layer_1" xmlns="http://www.w3.org/2000/svg" xmlns:xlink="http://www.w3.org/1999/xlink" x="0px" y="0px"
	 width="94px" height="94px" viewBox="0 0 94 94" enable-background="new 0 0 94 94" xml:space="preserve">
<g>
	<path fill="#231F20" d="M45.222,63.184c0,0-6.2-4.724-14.466-6.692c-8.267-1.969-16.828,0.787-16.828,0.787l5.905-28.539
		c0,0,9.742-2.459,16.336-2.559c6.593-0.098,9.053,2.559,9.053,2.559V63.184z"/>
	<path fill="#231F20" d="M48.402,63.184c0,0,6.2-4.724,14.466-6.692c8.267-1.969,16.827,0.787,16.827,0.787L73.792,28.74
		c0,0-9.742-2.459-16.336-2.559c-6.593-0.098-9.053,2.559-9.053,2.559V63.184z"/>
	<path fill="#231F20" d="M80.467,61.314c-2.015-0.561-11.574-3.029-18.599-1.357c-8.266,1.969-15.057,7.988-15.057,7.988
		s-6.791-6.02-15.057-7.988c-7.025-1.672-16.617-0.006-18.632,0.555l-0.553,2.672c0,0,10.918-2.686,19.185-0.717
		c8.266,1.969,15.057,7.986,15.057,7.986s6.791-6.018,15.057-7.986c8.267-1.969,19.151,1.519,19.151,1.519L80.467,61.314z"/>
</g>`
</svg>
